<svg width="280" height="22" viewBox="0 0 280 22" fill="none" xmlns="http://www.w3.org/2000/svg">
<path d="M11.4742 15.8457H4.82968L3.23007 21H0.700775L7.12656 1.09375H9.2457L15.5621 21H13.0465L11.4742 15.8457ZM5.51328 13.6445H10.8043L8.17929 5.00391L5.51328 13.6445ZM26.918 8.4082C27.1185 8.10742 27.3418 7.83398 27.5879 7.58789C27.834 7.33268 28.0937 7.10938 28.3672 6.91797C28.8047 6.59896 29.2832 6.35742 29.8027 6.19336C30.3314 6.0293 30.8919 5.94271 31.4844 5.93359C32.2591 5.93359 32.9609 6.04753 33.5898 6.27539C34.2279 6.49414 34.7702 6.84049 35.2168 7.31445C35.6634 7.78841 36.0052 8.38997 36.2422 9.11914C36.4883 9.83919 36.6113 10.696 36.6113 11.6895V21H34.082V11.6621C34.082 11.0788 34.0137 10.5684 33.8769 10.1309C33.7402 9.68424 33.5397 9.3151 33.2754 9.02344C32.9928 8.70443 32.6374 8.46745 32.209 8.3125C31.7806 8.14844 31.2884 8.07096 30.7324 8.08008C30.2767 8.08008 29.8437 8.14388 29.4336 8.27148C29.0234 8.39909 28.6452 8.58138 28.2988 8.81836C28.0254 9.00065 27.7702 9.21484 27.5332 9.46094C27.3053 9.69792 27.1003 9.96224 26.918 10.2539V21H24.3887V0H26.918V8.4082ZM47.9672 6.20703L48.0355 7.60156C48.3363 7.08203 48.7282 6.67643 49.2113 6.38477C49.7035 6.0931 50.296 5.94271 50.9887 5.93359C51.3806 5.93359 51.7315 5.97917 52.0414 6.07031C52.3604 6.15234 52.6384 6.27539 52.8754 6.43945C53.0486 6.56706 53.2035 6.72201 53.3402 6.9043C53.4861 7.08659 53.6091 7.29167 53.7094 7.51953C53.837 7.3099 53.9874 7.11393 54.1605 6.93164C54.3337 6.74935 54.5206 6.58984 54.7211 6.45312C54.9763 6.29818 55.2588 6.17513 55.5687 6.08398C55.8878 5.99284 56.2341 5.94271 56.6078 5.93359C57.1182 5.93359 57.5785 6.01107 57.9887 6.16602C58.3988 6.31185 58.7452 6.5306 59.0277 6.82227C59.3376 7.15039 59.5746 7.57878 59.7387 8.10742C59.9027 8.62695 59.9848 9.24219 59.9848 9.95312V21H57.5785V9.92578C57.5785 9.61589 57.5421 9.34245 57.4691 9.10547C57.3962 8.86849 57.2914 8.67253 57.1547 8.51758C57.0088 8.37174 56.8266 8.26237 56.6078 8.18945C56.3982 8.11654 56.1521 8.08008 55.8695 8.08008C55.5687 8.08008 55.309 8.12109 55.0902 8.20312C54.8715 8.28516 54.6892 8.39453 54.5434 8.53125C54.3975 8.67708 54.2836 8.8457 54.2016 9.03711C54.1195 9.2194 54.0648 9.42448 54.0375 9.65234C54.0375 9.69792 54.0375 9.74349 54.0375 9.78906C54.0375 9.82552 54.0375 9.87109 54.0375 9.92578V21H51.6312V9.91211C51.6312 9.60221 51.5948 9.32878 51.5219 9.0918C51.4581 8.85482 51.3532 8.65885 51.2074 8.50391C51.0707 8.35807 50.8975 8.25326 50.6879 8.18945C50.4874 8.11654 50.2504 8.08008 49.9769 8.08008C49.6762 8.08008 49.4118 8.11654 49.184 8.18945C48.9652 8.25326 48.7784 8.34896 48.6234 8.47656C48.5049 8.57682 48.4001 8.69076 48.309 8.81836C48.2269 8.94596 48.1586 9.08268 48.1039 9.22852V21H45.6977V6.20703H47.9672ZM75.7566 21.2734C74.7176 21.2734 73.7605 21.0957 72.8855 20.7402C72.0197 20.3848 71.2768 19.888 70.657 19.25C70.0372 18.612 69.5542 17.8555 69.2078 16.9805C68.8615 16.1055 68.6883 15.153 68.6883 14.123V13.5488C68.6883 12.3548 68.8797 11.2884 69.2625 10.3496C69.6453 9.40169 70.1557 8.59961 70.7937 7.94336C71.4227 7.29622 72.1381 6.79948 72.9402 6.45312C73.7514 6.10677 74.5809 5.93359 75.4285 5.93359C76.4949 5.93359 77.4246 6.12044 78.2176 6.49414C79.0197 6.85872 79.685 7.36458 80.2137 8.01172C80.7423 8.66797 81.1342 9.43815 81.3895 10.3223C81.6538 11.2064 81.7859 12.1634 81.7859 13.1934V14.3281H71.2176V14.4238C71.2814 15.1439 71.4227 15.7773 71.6414 16.3242C71.8693 16.8711 72.1792 17.3542 72.5711 17.7734C72.9721 18.2201 73.4552 18.571 74.0203 18.8262C74.5854 19.0814 75.2098 19.209 75.8934 19.209C76.7957 19.209 77.5978 19.0267 78.2996 18.6621C79.0014 18.2975 79.5848 17.8145 80.0496 17.2129L81.5945 18.416C81.1023 19.1634 80.3641 19.8288 79.3797 20.4121C78.4044 20.9863 77.1967 21.2734 75.7566 21.2734ZM75.4285 8.01172C74.9181 8.01172 74.435 8.10742 73.9793 8.29883C73.5236 8.48112 73.1134 8.75 72.7488 9.10547C72.3842 9.47005 72.0743 9.91667 71.8191 10.4453C71.573 10.9648 71.3999 11.5664 71.2996 12.25H79.2566V12.127C79.2566 11.6712 79.17 11.1836 78.9969 10.6641C78.8237 10.1354 78.5822 9.67969 78.2723 9.29688C77.9624 8.91406 77.5704 8.60417 77.0965 8.36719C76.6316 8.13021 76.0756 8.01172 75.4285 8.01172ZM91.1594 13.4805C91.1594 12.3776 91.2961 11.3659 91.5695 10.4453C91.8521 9.51562 92.2531 8.7181 92.7727 8.05273C93.2831 7.38737 93.9029 6.86784 94.632 6.49414C95.3612 6.12044 96.1769 5.93359 97.0793 5.93359C97.9634 5.93359 98.7336 6.08398 99.3898 6.38477C100.055 6.67643 100.629 7.10482 101.112 7.66992V0H103.642V21H101.318L101.208 19.4414C100.716 20.043 100.128 20.4987 99.4445 20.8086C98.7609 21.1185 97.9634 21.2734 97.0519 21.2734C96.1587 21.2734 95.3475 21.082 94.6184 20.6992C93.8983 20.3164 93.2831 19.7878 92.7727 19.1133C92.2622 18.4388 91.8658 17.6458 91.5832 16.7344C91.3006 15.8138 91.1594 14.8249 91.1594 13.7676V13.4805ZM93.6887 13.7676C93.6887 14.4876 93.7661 15.1712 93.9211 15.8184C94.076 16.4655 94.3176 17.0352 94.6457 17.5273C94.9647 18.0195 95.3749 18.4115 95.8762 18.7031C96.3775 18.9857 96.979 19.127 97.6809 19.127C98.5285 19.127 99.2303 18.9355 99.7863 18.5527C100.342 18.1699 100.784 17.6549 101.112 17.0078V10.1445C100.784 9.54297 100.342 9.05078 99.7863 8.66797C99.2303 8.27604 98.5376 8.08008 97.7082 8.08008C96.9973 8.08008 96.3866 8.22591 95.8762 8.51758C95.3749 8.80924 94.9647 9.20117 94.6457 9.69336C94.3176 10.1947 94.076 10.7734 93.9211 11.4297C93.7661 12.0768 93.6887 12.7604 93.6887 13.4805V13.7676ZM147.422 11.7988H139.109V18.8535H148.803V21H136.58V1.09375H148.68V3.25391H139.109V9.65234H147.422V11.7988ZM159.284 0H166.844V18.8125H171.67V21H159.284V18.8125H164.315V2.20117H159.284V0ZM183.833 8.4082C184.033 8.10742 184.257 7.83398 184.503 7.58789C184.749 7.33268 185.009 7.10938 185.282 6.91797C185.72 6.59896 186.198 6.35742 186.718 6.19336C187.246 6.0293 187.807 5.94271 188.399 5.93359C189.174 5.93359 189.876 6.04753 190.505 6.27539C191.143 6.49414 191.685 6.84049 192.132 7.31445C192.578 7.78841 192.92 8.38997 193.157 9.11914C193.403 9.83919 193.526 10.696 193.526 11.6895V21H190.997V11.6621C190.997 11.0788 190.929 10.5684 190.792 10.1309C190.655 9.68424 190.455 9.3151 190.19 9.02344C189.908 8.70443 189.552 8.46745 189.124 8.3125C188.695 8.14844 188.203 8.07096 187.647 8.08008C187.192 8.08008 186.759 8.14388 186.348 8.27148C185.938 8.39909 185.56 8.58138 185.214 8.81836C184.94 9.00065 184.685 9.21484 184.448 9.46094C184.22 9.69792 184.015 9.96224 183.833 10.2539V21H181.304V0H183.833V8.4082ZM213.441 21C213.34 20.8086 213.258 20.5716 213.195 20.2891C213.14 19.9974 213.099 19.6966 213.071 19.3867C212.816 19.6419 212.529 19.8835 212.21 20.1113C211.9 20.3392 211.558 20.5397 211.185 20.7129C210.802 20.8861 210.396 21.0228 209.968 21.123C209.54 21.2233 209.084 21.2734 208.601 21.2734C207.817 21.2734 207.106 21.1595 206.468 20.9316C205.839 20.7038 205.306 20.3939 204.868 20.002C204.422 19.6191 204.075 19.1634 203.829 18.6348C203.592 18.097 203.474 17.5182 203.474 16.8984C203.474 16.0872 203.633 15.3763 203.952 14.7656C204.28 14.1549 204.741 13.6445 205.333 13.2344C205.926 12.8333 206.637 12.5326 207.466 12.332C208.305 12.1315 209.239 12.0312 210.269 12.0312H213.03V10.8691C213.03 10.4225 212.948 10.0215 212.784 9.66602C212.62 9.31055 212.388 9.00521 212.087 8.75C211.786 8.50391 211.417 8.3125 210.98 8.17578C210.551 8.03906 210.068 7.9707 209.53 7.9707C209.029 7.9707 208.578 8.03451 208.177 8.16211C207.785 8.28971 207.452 8.45833 207.179 8.66797C206.905 8.8776 206.691 9.12826 206.536 9.41992C206.39 9.70247 206.318 9.9987 206.318 10.3086H203.775C203.784 9.77083 203.92 9.24219 204.185 8.72266C204.458 8.20312 204.85 7.73372 205.361 7.31445C205.862 6.9043 206.473 6.57161 207.193 6.31641C207.922 6.0612 208.747 5.93359 209.667 5.93359C210.506 5.93359 211.285 6.03841 212.005 6.24805C212.725 6.44857 213.349 6.75391 213.878 7.16406C214.398 7.58333 214.808 8.10286 215.109 8.72266C215.409 9.34245 215.56 10.0671 215.56 10.8965V17.7734C215.56 18.2656 215.605 18.7897 215.696 19.3457C215.788 19.8926 215.915 20.3711 216.079 20.7812V21H213.441ZM208.97 19.0723C209.462 19.0723 209.922 19.0085 210.351 18.8809C210.779 18.7533 211.171 18.5846 211.527 18.375C211.873 18.1654 212.174 17.9284 212.429 17.6641C212.684 17.3906 212.885 17.1081 213.03 16.8164V13.8223H210.679C209.804 13.8223 209.038 13.8997 208.382 14.0547C207.735 14.2005 207.22 14.4284 206.837 14.7383C206.564 14.957 206.354 15.2168 206.208 15.5176C206.071 15.8184 206.003 16.1602 206.003 16.543C206.003 16.9076 206.062 17.2448 206.181 17.5547C206.308 17.8646 206.495 18.1289 206.741 18.3477C206.987 18.5755 207.297 18.7533 207.671 18.8809C208.045 19.0085 208.478 19.0723 208.97 19.0723ZM225.658 13.4805C225.658 12.3776 225.795 11.3659 226.068 10.4453C226.351 9.51562 226.752 8.7181 227.271 8.05273C227.782 7.38737 228.401 6.86784 229.13 6.49414C229.86 6.12044 230.675 5.93359 231.578 5.93359C232.462 5.93359 233.232 6.08398 233.888 6.38477C234.554 6.67643 235.128 7.10482 235.611 7.66992V0H238.14V21H235.816L235.707 19.4414C235.214 20.043 234.627 20.4987 233.943 20.8086C233.259 21.1185 232.462 21.2734 231.55 21.2734C230.657 21.2734 229.846 21.082 229.117 20.6992C228.397 20.3164 227.782 19.7878 227.271 19.1133C226.761 18.4388 226.364 17.6458 226.082 16.7344C225.799 15.8138 225.658 14.8249 225.658 13.7676V13.4805ZM228.187 13.7676C228.187 14.4876 228.265 15.1712 228.42 15.8184C228.574 16.4655 228.816 17.0352 229.144 17.5273C229.463 18.0195 229.873 18.4115 230.375 18.7031C230.876 18.9857 231.477 19.127 232.179 19.127C233.027 19.127 233.729 18.9355 234.285 18.5527C234.841 18.1699 235.283 17.6549 235.611 17.0078V10.1445C235.283 9.54297 234.841 9.05078 234.285 8.66797C233.729 8.27604 233.036 8.08008 232.207 8.08008C231.496 8.08008 230.885 8.22591 230.375 8.51758C229.873 8.80924 229.463 9.20117 229.144 9.69336C228.816 10.1947 228.574 10.7734 228.42 11.4297C228.265 12.0768 228.187 12.7604 228.187 13.4805V13.7676ZM248.949 6.20703H256.51V18.8125H261.336V21H248.949V18.8125H253.98V8.4082H248.949V6.20703ZM253.652 2.32422C253.652 2.10547 253.684 1.90039 253.748 1.70898C253.821 1.51758 253.93 1.35352 254.076 1.2168C254.195 1.09831 254.345 1.00716 254.527 0.943359C254.719 0.870443 254.933 0.833984 255.17 0.833984C255.407 0.833984 255.617 0.870443 255.799 0.943359C255.981 1.00716 256.132 1.09831 256.25 1.2168C256.396 1.3444 256.505 1.50391 256.578 1.69531C256.651 1.88672 256.688 2.09635 256.688 2.32422C256.688 2.73438 256.56 3.07617 256.305 3.34961C256.049 3.62305 255.671 3.75977 255.17 3.75977C254.66 3.75977 254.277 3.62305 254.021 3.34961C253.775 3.07617 253.652 2.73438 253.652 2.32422ZM275.371 19.3594C275.371 18.8216 275.536 18.3613 275.864 17.9785C276.192 17.5957 276.689 17.4043 277.354 17.4043C278.01 17.4043 278.507 17.5957 278.844 17.9785C279.191 18.3522 279.364 18.8125 279.364 19.3594C279.364 19.8971 279.191 20.3483 278.844 20.7129C278.498 21.0775 278.001 21.2598 277.354 21.2598C276.698 21.2598 276.201 21.0775 275.864 20.7129C275.536 20.3392 275.371 19.888 275.371 19.3594Z" fill="white"/>
</svg>
